<?xml version="1.0" ?><svg
  viewBox="0 0 64 64"
  xmlns="http://www.w3.org/2000/svg"
>
  <style>
    * {
      fill: #0f93bb;
    }
  </style>
  <g id="Business_sale_growing_profit">
    <path
      d="M61.3816,12.2871v0L50.5544,2.3837a2.7665,2.7665,0,0,0-3.7549,0L35.9724,12.2871a2.3338,2.3338,0,0,0,1.5742,4.0561h4.2979a.486.486,0,0,1,.4853.4854V45.7441A2.2884,2.2884,0,0,0,44.616,48.03h7.8828a2.2884,2.2884,0,0,0,2.2861-2.2856V16.8286a.486.486,0,0,1,.4854-.4854h4.5371a2.3338,2.3338,0,0,0,1.5742-4.0561Z"
    />
    <path
      d="M53.7849,57.0634H43.33a1.75,1.75,0,0,0,0,3.5H53.7849a1.75,1.75,0,0,0,0-3.5Z"
    />
    <path
      d="M53.7849,51.5356H43.33a1.75,1.75,0,1,0,0,3.5H53.7849a1.75,1.75,0,1,0,0-3.5Z"
    />
    <rect height="23.6816" rx="2.4648" width="12.4551" x="4.5076" y="37.1318" />
    <path
      d="M24.97,26.0424h7.5259a2.4648,2.4648,0,0,1,2.4648,2.4648V58.3486a2.4648,2.4648,0,0,1-2.4648,2.4648H24.97a2.4648,2.4648,0,0,1-2.4648-2.4648V28.5068A2.4644,2.4644,0,0,1,24.97,26.0424Z"
    />
  </g>
</svg>
