<?xml version="1.0" ?><svg
  viewBox="0 0 32 32"
  xmlns="http://www.w3.org/2000/svg"
>
  <defs>
    <style>
      .cls-1 {
        fill: transparent;
      }
      .cls-2 {
        fill: #0f93bb;
      }
    </style>
  </defs>
  <g data-name="30. Box Up" id="_30._Box_Up">
    <path
      class="cls-1"
      d="M11,1H21a0,0,0,0,1,0,0V6a2,2,0,0,1-2,2H13a2,2,0,0,1-2-2V1A0,0,0,0,1,11,1Z"
    />
    <path
      class="cls-2"
      d="M29,32H3a3,3,0,0,1-3-3V3A3,3,0,0,1,3,0H29a3,3,0,0,1,3,3V29A3,3,0,0,1,29,32ZM3,2A1,1,0,0,0,2,3V29a1,1,0,0,0,1,1H29a1,1,0,0,0,1-1V3a1,1,0,0,0-1-1Z"
    />
    <path class="cls-2" d="M25,28H7a1,1,0,0,1,0-2H25a1,1,0,0,1,0,2Z" />
    <path
      class="cls-2"
      d="M11.71,10.29a1,1,0,0,0-1.42,0l-3,3a1,1,0,1,0,1.42,1.42L10,13.41V23a1,1,0,0,0,2,0V13.41l1.29,1.3a1,1,0,0,0,1.42,0,1,1,0,0,0,0-1.42Z"
    />
    <path
      class="cls-2"
      d="M24.71,13.29l-3-3a1,1,0,0,0-1.42,0l-3,3a1,1,0,0,0,1.42,1.42L20,13.41V23a1,1,0,0,0,2,0V13.41l1.29,1.3a1,1,0,0,0,1.42,0A1,1,0,0,0,24.71,13.29Z"
    />
  </g>
</svg>
