<?xml version="1.0" ?><svg
  viewBox="0 0 512 512"
  xmlns="http://www.w3.org/2000/svg"
>
  <style>
    path {
      fill: #0f93bb;
    }
  </style>
  <g id="Wine_rating">
    <path
      d="M271.3157,190.1188c0-49.9258-18.7475-112.2178-26.2412-135.1284A13.0635,13.0635,0,0,0,232.6053,46H108.2615A13.0659,13.0659,0,0,0,95.79,54.9909C88.2967,77.9015,69.5511,140.193,69.5511,190.1188a100.83,100.83,0,0,0,87.7607,99.9331V399.9757L78.1067,450.3781A8.4734,8.4734,0,0,0,82.6546,466H258.21a8.4734,8.4734,0,0,0,4.5478-15.6221L183.5618,399.98v-109.93A100.8311,100.8311,0,0,0,271.3157,190.1188Zm-91.1465,73.8984-9.7495,1.2735-9.7158-1.2691a74.7145,74.7145,0,0,1-64.9072-73.9008c0-6.9566.4336-14.229,1.1538-21.6206H243.9168c.7178,7.3916,1.1514,14.664,1.1514,21.6206A74.7066,74.7066,0,0,1,180.1692,264.0172Z"
    />
    <path
      d="M433.473,387.8014l-28.26-4.1054-12.64-25.6114a10.4674,10.4674,0,0,0-18.773,0L361.16,383.696l-28.2627,4.1054a10.4679,10.4679,0,0,0-5.8,17.855l20.45,19.9341L342.72,453.7384a10.4677,10.4677,0,0,0,15.1885,11.0357l25.2778-13.2886,25.28,13.2886a10.4683,10.4683,0,0,0,15.1885-11.0357l-4.8276-28.1479,20.45-19.9341A10.4685,10.4685,0,0,0,433.473,387.8014Z"
    />
    <path
      d="M433.473,234.6764l-28.26-4.1054-12.64-25.6114a10.4674,10.4674,0,0,0-18.773,0L361.16,230.571l-28.2627,4.1054a10.4679,10.4679,0,0,0-5.8,17.855l20.45,19.9341L342.72,300.6134a10.4677,10.4677,0,0,0,15.1885,11.0357l25.2778-13.2886,25.28,13.2886a10.4683,10.4683,0,0,0,15.1885-11.0357l-4.8276-28.1479,20.45-19.9341A10.4685,10.4685,0,0,0,433.473,234.6764Z"
    />
    <path
      d="M347.5472,119.3405,342.72,147.4884a10.4677,10.4677,0,0,0,15.1885,11.0357l25.2778-13.2886,25.28,13.2886a10.4683,10.4683,0,0,0,15.1885-11.0357l-4.8276-28.1479,20.45-19.9341a10.4685,10.4685,0,0,0-5.8042-17.855l-28.26-4.1054-12.64-25.6114a10.4674,10.4674,0,0,0-18.773,0L361.16,77.446l-28.2627,4.1054a10.4679,10.4679,0,0,0-5.8,17.855Z"
    />
  </g>
</svg>
